<svg id="Camada_1" data-name="Camada 1" xmlns="http://www.w3.org/2000/svg" viewBox="0 0 841.89 264"><defs><style>.cls-1{fill:#c20a32;}.cls-1,.cls-2{fill-rule:evenodd;}.cls-2{fill:#599bd6;}.cls-3{fill:#fff;}</style></defs><title>growth-blog-footer-logo</title><path class="cls-1" d="M40.94,41.31,16.65,151.63c-4.4,28.58,10.74,39,36.92,39.1H175.23c24.87-.19,40.88-10.8,45-35.1l13.52-71.2H131.05l-10,41.55h14.49c-.91,4.24-1.82,8.52-2.73,12.81-1.52,6.82-7.9,10.59-13.83,10.48-5-.12-9.88-2.82-8.3-10.64l17-82.3c5.47-13.81,23.13-11.44,21.4,0l-1.66,7.06h90.9c10.42-29.33,12-54.05-29.36-56.6-15.53,0-47.36-.12-76.88-.38-24.45-.21-47.32-1-57.92,2.13C56,13.84,45.37,25.1,40.94,41.31Zm0,0"/><path class="cls-2" d="M457.11,81.78l6.74,108.09h44.39L531,139.94v49.41h46.44L629.21,82H581L561.4,127.18V81.78H524.87l-19.58,45.63V81.78Zm0,0"/><path class="cls-2" d="M651,52.64l-7,29.17H631.47l-4.28,19.66h13.5l-18.94,86.27h49.81l18-85h14.15l5-20.53H694.31L699.94,53Zm0,0"/><path class="cls-2" d="M724.74,52.85l-28.6,135.42h49.33l16-74.2c2.22-13.63,16.68-8.87,13.08,1.79l-14.67,73h49.37q8.34-39.11,16.69-78.23c1.61-29.28-19.3-35.78-59.72-22.57l8.44-35.11Zm0,0"/><path class="cls-2" d="M250.67,83.16,228.76,188.75h50q6.29-30.61,12.6-61.21c6.15-13.86,16.28-18.55,29.1-17.05,1.92-10.33,3.87-20.76,5.82-31.08-12,.26-22.6,2-27.71,9l.67-6Zm0,0"/><path class="cls-3" d="M791.76,224.06H747.85l-1.66,8.75h28.36c6.83,0,11,.61,13.44,3.41,3.16,3.61,2.17,14.75-4.12,19.42-1.82,1.38-9.58,2.06-14,2.06h-39l1.68-7.68h46.36l1.79-9.32H746.73c-4.43,0-7.29-.63-8.59-2s-1.6-3.9-.88-7.61l.83-4.49c.72-3.71,2-6.26,3.77-7.61s5-2,9.35-2h41.54Zm-679.42,0H68.44l-1.66,8.75H95.13c6.87,0,11,.61,13.48,3.41,3.18,3.61,2.14,14.75-4.16,19.42-1.81,1.38-9.54,2.06-14,2.06h-39L53.1,250H99.45l1.79-9.32h-34c-4.38,0-7.23-.63-8.55-2s-1.58-3.9-.88-7.61l.85-4.49c.72-3.71,2-6.26,3.76-7.61s4.92-2,9.36-2h41.56Zm27.23-7.1L133.34,250h36.34L175.93,217h10.55L180.57,248c-.68,3.76-1.93,6.29-3.72,7.66s-8.64,2-13.07,2H132.55c-4.37,0-7.25-.68-8.57-2s-1.62-3.9-.92-7.66L129,217ZM239,224H211l-2.06,10.81h28a7.74,7.74,0,0,0,3.89-.71,3.63,3.63,0,0,0,1.52-2.53l.79-4.37a2.51,2.51,0,0,0-.52-2.49c-.6-.47-1.79-.71-3.64-.71ZM194.16,257.7,201.88,217H245c3.61,0,6.11.61,7.53,1.87s1.77,3.25,1.28,6L252,233.94a8.87,8.87,0,0,1-3.51,6c-1.9,1.23-4.6,1.87-8.24,1.87H207.6l-3,15.89ZM304.44,224H276L274,234.79h28.44a7.82,7.82,0,0,0,3.9-.71,3.49,3.49,0,0,0,1.5-2.53l.83-4.37c.2-1.18,0-2-.56-2.49s-1.78-.71-3.64-.71ZM259.23,257.7,267,217h43.51c3.65,0,6.14.61,7.52,1.87s1.79,3.25,1.29,6l-1.7,9.13a8.79,8.79,0,0,1-3.63,6c-1.82,1.23-4.55,1.87-8.17,1.87H272.66l-3,15.89Zm64.5-.16,7.69-40.73H342L335.8,249.9l35.78.12-3.1,7.52Zm60.2.29L391.67,217l47.39-.09-1.79,6.9L401,224l-1.74,9.11,34-.11L432,239.92l-34.08.11L396,250.13l36.09-.11-3.41,7.81Zm60-.12L451.67,217h8.58l19.65,29.81L513.67,217h10l-8.17,40.74h-8.35c1-7.62,3.12-19.84,4.28-27,.31-2.3-.21-1.5-1.79.07-.59.65-1,1.29-1.46,1.68l-25.44,25.4H476.1l-16.28-25.49a12.56,12.56,0,0,1-1.23-2.17,14.34,14.34,0,0,1-.73-2c-.06.87-.15,1.67-.24,2.31s-.2,1.38-.3,2l-4.77,25.17Zm87,0L538.7,217h48.14l-1.29,6.9H548L546.23,233h34.19l-1.34,6.94H544.92L543,250h36.05l-1.44,7.68Zm59.92,0L598.62,217h7.2L647.55,244c.08-.56,5.46-20.69,6.67-27.08h8.59l-9.38,40.74H648.1l-42.63-29.64c-.94,3-1.21,5.67-1.7,7.61l-5.15,22Zm114.92-33.48L699.5,257.7h-10l6.29-33.48H672.84l1.35-7.26h55.35l-1.44,7.26Zm0,0"/><path class="cls-2" d="M399.62,82.16H356c-12.95,2.17-20.64,9-22.81,20.49-5,22-9.71,43.95-15,65.85-5.94,24.85,32.57,20.87,59.44,20.87h28.06c8.6-.91,17.71-5.26,23.22-12.27,4.39-5.56,12.83-45.85,18.94-74.83,5.06-23.84-25.68-20.12-48.27-20.12ZM385,162.2a8.83,8.83,0,0,1-8.19,7h-.48c-3.82,0-6.3-3.12-5.52-7l10-51.23a8.82,8.82,0,0,1,8.2-7h.49c3.78,0,6.25,3.13,5.51,7Zm0,0"/></svg>