<svg id="Camada_1" data-name="Camada 1" xmlns="http://www.w3.org/2000/svg" viewBox="0 0 841.89 181.2"><defs><style>.cls-1,.cls-4{fill:#c20a32;}.cls-1,.cls-2,.cls-3{fill-rule:evenodd;}.cls-2{fill:#599bd6;}.cls-3{fill:#201f1e;}</style></defs><title>Objeto Inteligente de Vetor</title><path class="cls-1" d="M20.19,25.9,5.11,94.43C2.37,112.18,11.77,118.64,28,118.71h75.57c15.45-.12,25.4-6.71,28-21.8L140,52.68H76.17L70,78.49h9c-.56,2.64-1.13,5.3-1.7,8A8.56,8.56,0,0,1,68.68,93c-3.08-.08-6.14-1.75-5.16-6.61L74.07,35.23c3.4-8.58,14.37-7.11,13.29,0l-1,4.39h56.46C149.27,21.4,150.25,6,124.55,4.46c-9.64,0-29.42-.08-47.75-.24-15.19-.13-29.39-.6-36,1.33C29.54,8.84,22.95,15.83,20.19,25.9Zm0,0"/><path class="cls-2" d="M278.71,51l4.19,67.14h27.58l14.11-31v30.69h28.85l32.18-66.67h-30L343.49,79.24V51H320.8L308.63,79.39V51Zm0,0"/><path class="cls-2" d="M399.16,32.94l-4.35,18.12H387l-2.66,12.21h8.39L381,116.85h30.94L423.12,64h8.79L435,51.28h-9l3.5-18.09Zm0,0"/><path class="cls-2" d="M444.95,33.07l-17.77,84.11h30.64l9.92-46.09c1.38-8.46,10.36-5.51,8.13,1.11l-9.11,45.31h30.67q5.18-24.3,10.37-48.59c1-18.19-12-22.22-37.1-14l5.24-21.81Zm0,0"/><path class="cls-2" d="M150.47,51.9l-13.61,65.59h31.08q3.91-19,7.83-38c3.82-8.61,10.11-11.53,18.08-10.59,1.19-6.41,2.41-12.9,3.62-19.3-7.47.16-14,1.23-17.22,5.6l.42-3.75Zm0,0"/><path class="cls-3" d="M486.58,139.42H459.3l-1,5.44h17.62c4.24,0,6.85.38,8.35,2.12,2,2.24,1.35,9.16-2.56,12.06-1.13.86-6,1.28-8.71,1.28H448.74l1-4.77h28.79l1.11-5.79H458.61c-2.75,0-4.53-.39-5.33-1.25s-1-2.42-.55-4.72l.52-2.79c.45-2.31,1.23-3.89,2.34-4.73s3.08-1.26,5.81-1.26h25.8Zm-422,0H37.28l-1,5.44H53.86c4.26,0,6.85.38,8.37,2.12,2,2.24,1.33,9.16-2.58,12.06-1.12.86-5.93,1.28-8.71,1.28H26.71l1-4.77H56.54l1.11-5.79H36.55c-2.72,0-4.49-.39-5.31-1.25s-1-2.42-.55-4.72l.53-2.79c.45-2.31,1.23-3.89,2.33-4.73S36.61,135,39.37,135H65.19ZM81.46,135l-3.87,20.54h22.57L104,135h6.55l-3.67,19.3c-.42,2.33-1.2,3.91-2.31,4.76s-5.37,1.25-8.12,1.25H77.1c-2.71,0-4.5-.42-5.32-1.25s-1-2.42-.57-4.76L74.88,135Zm61.73,4.36H125.81l-1.28,6.71h17.4a4.81,4.81,0,0,0,2.41-.44,2.26,2.26,0,0,0,.94-1.57l.49-2.71a1.56,1.56,0,0,0-.32-1.55,3.94,3.94,0,0,0-2.26-.44Zm-27.82,20.95,4.8-25.31h26.76c2.24,0,3.79.38,4.68,1.16s1.1,2,.79,3.71l-1.1,5.67a5.51,5.51,0,0,1-2.18,3.73,9.38,9.38,0,0,1-5.12,1.16H123.72l-1.85,9.87Zm68.5-20.95H166.23l-1.28,6.71h17.66a4.86,4.86,0,0,0,2.42-.44,2.17,2.17,0,0,0,.93-1.57l.52-2.71c.12-.73,0-1.26-.35-1.55a3.9,3.9,0,0,0-2.26-.44Zm-28.08,20.95,4.8-25.31h27c2.27,0,3.81.38,4.67,1.16s1.11,2,.8,3.71L192,145.55a5.46,5.46,0,0,1-2.25,3.73,9.13,9.13,0,0,1-5.07,1.16H164.13l-1.87,9.87Zm40.07-.1,4.78-25.3h6.58l-3.86,20.55,22.22.08-1.93,4.67Zm37.4.18,4.8-25.33,29.44-.05-1.11,4.28-22.55.08L242.75,145,263.9,145l-.79,4.31-21.17.07-1.17,6.28,22.42-.07-2.12,4.85Zm37.29-.08L275.33,135h5.33l12.2,18.52,21-18.52H320L315,160.32h-5.19c.64-4.73,1.94-12.33,2.66-16.79.19-1.43-.13-.93-1.11,0-.37.4-.64.8-.91,1l-15.8,15.78H290.5l-10.11-15.84a7.8,7.8,0,0,1-.76-1.35,8.91,8.91,0,0,1-.46-1.23c0,.54-.09,1-.15,1.43s-.12.86-.18,1.27l-3,15.63Zm54,0,4.8-25.31h29.9l-.8,4.28H335.15L334.07,145h21.24l-.83,4.31H333.25l-1.17,6.28h22.4l-.89,4.77Zm37.22,0,4.8-25.31h4.47L397,151.83c0-.35,3.39-12.85,4.14-16.82h5.33l-5.83,25.31h-3.31l-26.48-18.41c-.58,1.89-.75,3.52-1.06,4.72l-3.2,13.68Zm71.39-20.8-3.92,20.8H423l3.91-20.8H412.71l.84-4.51h34.38l-.89,4.51Zm0,0"/><path class="cls-2" d="M243,51.28H215.92c-8,1.35-12.82,5.57-14.17,12.73-3.11,13.64-6,27.3-9.31,40.91-3.69,15.43,20.23,13,36.92,13h17.43a21.67,21.67,0,0,0,14.42-7.62c2.73-3.45,8-28.48,11.76-46.48,3.14-14.81-16-12.5-30-12.5ZM233.94,101a5.48,5.48,0,0,1-5.09,4.33h-.3a3.43,3.43,0,0,1-3.43-4.33l6.2-31.82a5.48,5.48,0,0,1,5.1-4.32h.3a3.44,3.44,0,0,1,3.42,4.32Zm0,0"/><path class="cls-4" d="M627.22,73.15A16.45,16.45,0,0,1,618,85.38c4.14,2,6.11,6.39,5.13,12.14l-1,5.58A16,16,0,0,1,606,116.85H572.09l11.06-63h33.64c8.27,0,12.86,5.49,11.33,13.76ZM612.83,94.91c.63-3.06-1-4.95-4-4.95H587.47l-3.15,17.54h21.31a5.69,5.69,0,0,0,5.94-4.95Zm4.59-26.71c.45-3.15-1-5-4.14-5H592.15L589.09,80.7h21a5.56,5.56,0,0,0,5.85-5Z"/><path class="cls-4" d="M640.27,53.9H651l-9.53,53.6H673l-1.53,9.35H629.21Z"/><path class="cls-4" d="M713.93,116.85H692.8c-8.09,0-12.68-5.58-11.33-13.76l6.29-35.43c1.44-8.27,7.92-13.76,16.1-13.76h21c8.27,0,12.86,5.49,11.42,13.76L730,103.09A16,16,0,0,1,713.93,116.85Zm11.6-48.65c.54-3.15-1-5-4-5H704.22a5.62,5.62,0,0,0-5.85,5l-6,34.36c-.63,3.15.9,4.95,4,4.95h17.27a5.69,5.69,0,0,0,5.94-4.95Z"/><path class="cls-4" d="M788,116.85H780l-.63-4.23a16,16,0,0,1-11.06,4.23H753.06c-8.09,0-12.68-5.58-11.33-13.76L748,67.66a16.07,16.07,0,0,1,16.1-13.76h21.13c8.18,0,12.77,5.49,11.33,13.76l-1.17,6.2H784.81l1-5.67c.54-3.15-1-5-4-5H764.48a5.62,5.62,0,0,0-5.85,5l-6,34.36c-.63,3.15.9,4.95,4,4.95h17.27a5.69,5.69,0,0,0,5.93-4.95l1.71-9.8H764.93l1.62-9.35H793.8Z"/><path class="cls-4" d="M570,181.2l5.3-30h-16a22,22,0,0,1-17.21-7.7,22.55,22.55,0,0,1-4.65-18.76l13.59-77c2.45-13.87,15.74-25.16,29.64-25.16H815a22,22,0,0,1,17.21,7.7A22.55,22.55,0,0,1,836.85,49l-13.59,77c-2.45,13.87-15.74,25.16-29.65,25.16H605.36ZM580.65,30c-10.26,0-20.45,8.68-22.26,19l-13.59,77a15.18,15.18,0,0,0,3,12.64,14.61,14.61,0,0,0,11.47,5h25L581,162l21.6-18.36h191c10.26,0,20.45-8.68,22.26-19l13.59-77a15.18,15.18,0,0,0-3-12.64A14.62,14.62,0,0,0,815,30Z"/></svg>